<?xml version="1.0" standalone="no"?>
<!DOCTYPE svg PUBLIC "-//W3C//DTD SVG 20010904//EN"
 "http://www.w3.org/TR/2001/REC-SVG-20010904/DTD/svg10.dtd">
<svg version="1.0" xmlns="http://www.w3.org/2000/svg"
 width="371.000000pt" height="412.000000pt" viewBox="0 0 371.000000 412.000000"
 preserveAspectRatio="xMidYMid meet">

<g transform="translate(0.000000,412.000000) scale(0.100000,-0.100000)"
fill="#000000" stroke="none">
<path d="M2381 4060 c-23 -14 -30 -90 -30 -325 -1 -287 23 -670 49 -788 7 -33
6 -38 -7 -33 -35 14 -227 18 -346 7 -130 -11 -353 -58 -405 -85 -28 -14 -34
-12 -183 63 -290 146 -599 238 -924 276 -147 17 -287 12 -306 -11 -24 -29 70
-122 230 -228 185 -124 573 -311 811 -391 30 -11 58 -22 62 -25 4 -3 -1 -48
-12 -100 -11 -52 -20 -121 -20 -152 0 -62 -5 -66 -49 -44 -61 32 -315 120
-451 157 -193 52 -384 87 -558 101 -164 13 -171 11 -152 -49 58 -182 304 -719
346 -754 11 -9 62 -12 187 -11 168 2 392 -10 404 -22 7 -6 0 -32 -72 -276 -41
-142 -51 -188 -42 -196 7 -7 66 -31 132 -54 164 -59 172 -63 186 -109 16 -53
8 -68 -40 -76 -22 -4 -59 -20 -81 -36 l-41 -30 -50 56 c-28 30 -59 55 -70 55
-12 0 -26 -15 -39 -40 -50 -99 0 -364 115 -608 78 -165 149 -239 200 -212 18
10 31 10 61 -1 43 -14 257 -16 393 -4 l81 7 0 -27 c0 -27 1 -27 42 -22 31 4
48 1 60 -10 16 -14 20 -14 42 0 21 14 26 14 36 1 11 -13 17 -12 46 5 32 19 33
19 50 0 22 -24 26 -24 62 6 26 21 37 24 70 19 22 -3 48 -1 59 5 17 8 24 6 43
-14 26 -28 70 -34 70 -10 0 20 15 19 46 -2 21 -13 30 -14 45 -5 10 7 32 12 49
12 16 0 30 4 30 9 0 5 13 12 30 16 16 4 33 12 37 19 6 10 59 15 193 20 102 3
207 10 233 16 42 8 52 7 76 -11 89 -66 210 107 288 411 22 85 27 128 28 226 0
112 -2 123 -25 157 -14 20 -33 37 -44 37 -31 0 -91 -56 -115 -109 l-24 -50
-51 45 c-28 24 -71 54 -95 66 -41 20 -48 29 -102 142 -64 134 -96 237 -105
337 l-7 67 67 78 c38 45 85 115 109 163 39 79 42 90 42 170 0 76 -5 102 -47
226 -26 77 -61 197 -78 268 -16 70 -43 162 -60 205 -25 65 -30 91 -30 167 -1
431 -137 916 -341 1210 -54 79 -88 108 -108 95z m129 -406 c69 -23 122 -64
147 -114 57 -117 118 -434 130 -680 l6 -125 -38 34 c-54 47 -56 23 -6 -49 59
-83 96 -177 135 -343 19 -79 46 -177 60 -217 14 -40 26 -75 26 -77 0 -2 -15
-3 -34 -3 -42 0 -94 -35 -120 -80 -27 -46 -28 -139 -2 -193 21 -43 79 -87 113
-87 30 0 29 -8 -4 -58 -78 -115 -213 -237 -365 -330 -81 -49 -98 -69 -50 -58
49 12 126 55 200 112 41 30 76 54 78 51 3 -2 9 -32 14 -65 15 -91 47 -185 101
-301 27 -57 49 -105 49 -106 0 -1 -17 -7 -38 -13 -37 -11 -91 -56 -80 -67 2
-3 19 2 37 11 85 42 155 27 240 -52 l59 -54 -39 -113 c-37 -108 -52 -217 -30
-217 5 0 15 24 21 53 20 80 88 274 116 326 l24 46 -6 -83 c-4 -55 -3 -82 5
-82 12 0 40 90 42 134 1 17 5 45 10 61 5 19 7 -14 4 -87 -3 -76 -1 -118 5
-118 5 0 10 1 10 3 0 1 7 20 15 42 14 40 14 40 15 9 1 -100 -64 -337 -123
-448 -34 -63 -95 -136 -116 -136 -6 0 -21 16 -32 35 -24 39 -34 44 -42 16 -6
-24 -38 -29 -268 -37 -186 -7 -239 -3 -239 17 0 6 25 55 55 110 150 266 225
516 228 756 1 64 -3 107 -10 114 -12 12 -17 -13 -28 -146 -21 -253 -80 -439
-219 -693 -67 -123 -73 -144 -52 -177 13 -20 14 -25 2 -25 -7 0 -19 7 -26 15
-22 26 -41 19 -34 -12 l7 -28 -25 23 c-26 23 -38 21 -38 -9 0 -17 -2 -17 -35
2 -36 22 -55 19 -55 -8 0 -13 -6 -11 -27 9 -21 20 -32 24 -45 17 -32 -18 -45
25 -51 167 -4 72 -11 180 -18 240 -11 105 -10 114 19 252 16 79 25 145 20 148
-10 7 -44 -67 -53 -118 -4 -21 -10 -38 -14 -38 -3 0 -14 35 -23 79 -18 88 -51
171 -68 171 -6 0 -9 -8 -6 -17 3 -10 19 -85 35 -168 34 -169 58 -365 70 -565
4 -74 11 -142 15 -151 6 -13 1 -15 -21 -12 -20 3 -34 -2 -47 -16 -23 -26 -35
-26 -52 -3 -12 16 -14 16 -48 -2 -36 -19 -37 -19 -50 0 -14 18 -15 18 -35 0
-21 -19 -22 -19 -35 -1 -12 17 -18 18 -40 7 -14 -6 -26 -10 -26 -8 0 2 5 17
11 35 11 30 7 39 -62 154 -151 252 -213 383 -269 567 -17 58 -34 111 -36 119
-3 9 -8 11 -14 5 -13 -13 5 -121 37 -219 30 -93 162 -355 251 -500 33 -55 58
-103 54 -107 -11 -11 -349 -29 -415 -22 -101 11 -99 9 -103 98 -7 148 -44 152
-44 4 0 -120 -20 -127 -88 -30 -74 107 -132 248 -178 437 -31 128 -31 147 -3
111 32 -40 37 -24 18 51 -10 37 -18 82 -17 98 0 32 2 27 19 -60 10 -55 44
-119 58 -110 5 3 3 30 -6 61 -8 31 -12 58 -10 61 6 5 64 -91 106 -174 60 -120
68 -59 9 69 l-31 68 23 25 c49 52 148 56 240 10 61 -31 74 -32 60 -6 -5 11
-39 34 -75 52 -36 18 -64 37 -61 43 40 95 103 323 132 484 4 22 8 20 58 -31
59 -60 179 -127 227 -127 16 0 29 3 29 8 0 4 -37 25 -82 47 -140 66 -235 182
-273 333 -17 67 -35 323 -35 505 0 126 12 242 31 303 9 30 12 32 48 27 44 -6
65 12 29 26 -13 5 -57 19 -98 31 -122 36 -364 134 -525 213 -134 66 -152 78
-171 113 -36 65 -55 190 -35 223 12 18 95 5 289 -45 264 -68 523 -176 691
-289 45 -30 86 -55 92 -55 16 0 10 16 -16 40 -14 13 -25 27 -25 31 0 13 123
48 249 71 171 31 432 31 554 0 101 -25 107 -26 107 -11 0 5 -24 21 -54 34 -29
13 -56 31 -60 40 -21 55 -56 455 -56 644 l0 103 38 -6 c20 -4 57 -14 82 -22z
m-2193 -1209 c312 -35 645 -124 904 -242 l75 -34 12 -217 c6 -121 18 -245 27
-280 l15 -64 -74 -101 c-83 -115 -136 -199 -136 -216 0 -6 41 -31 91 -56 54
-28 89 -51 86 -58 -2 -7 -13 -38 -23 -70 -19 -61 -29 -70 -39 -36 -8 23 -38
37 -198 94 l-109 38 6 31 c4 17 34 122 67 234 33 112 58 209 56 216 -7 16
-156 27 -425 30 -144 2 -185 5 -197 17 -48 49 -325 658 -325 716 0 17 18 16
187 -2z m1065 -919 c16 -32 15 -39 -19 -174 l-35 -141 -74 37 -73 36 22 36
c62 101 153 240 158 240 3 0 13 -15 21 -34z"/>
<path d="M2589 2447 c-67 -45 -87 -130 -46 -201 73 -130 258 -91 274 57 14
122 -127 212 -228 144z m83 -34 c28 -25 24 -71 -8 -83 -51 -20 -90 29 -60 75
19 29 42 32 68 8z"/>
<path d="M1683 2398 c-124 -88 -65 -278 86 -278 117 0 191 129 131 228 -44 72
-151 96 -217 50z m133 -35 c18 -24 17 -43 -3 -65 -39 -44 -106 2 -82 56 15 31
64 36 85 9z"/>
<path d="M2293 2223 c-21 -8 -14 -33 12 -45 22 -10 29 -9 47 9 11 12 17 26 14
32 -7 11 -50 14 -73 4z"/>
<path d="M2210 2060 c-111 -53 -163 -62 -229 -39 -42 15 -49 6 -18 -25 19 -19
30 -46 41 -109 17 -88 52 -200 81 -258 51 -101 137 -179 196 -179 37 0 106 48
139 95 59 86 150 331 150 406 0 19 12 39 38 64 l37 37 -40 -8 c-60 -11 -78 -7
-170 31 -47 19 -93 35 -103 35 -9 0 -64 -22 -122 -50z m175 -216 c28 -13 63
-36 78 -52 27 -28 27 -29 12 -71 -26 -75 -77 -160 -117 -196 -67 -61 -131 -42
-198 58 -37 55 -80 153 -80 182 0 7 17 27 38 43 97 76 164 85 267 36z"/>
<path d="M1495 1981 c-83 -37 -128 -126 -107 -207 22 -81 73 -127 156 -141 66
-10 149 36 183 100 9 18 16 54 16 82 0 80 -40 138 -115 170 -49 20 -84 19
-133 -4z"/>
</g>
</svg>
